{"accessors" : [{"bufferView" : 0, "byteOffset" : 0, "componentType" : 5123, "count" : 24204, "type" : "SCALAR", "max" : [24203], "min" : [0]}, {"bufferView" : 1, "byteOffset" : 0, "componentType" : 5126, "count" : 24204, "type" : "VEC3", "max" : [30.329036712646484, 12.869081497192383, 21.711414337158203], "min" : [-31.332185745239258, -10.26034927368164, -34.80863571166992], "name" : "POSITION"}, {"bufferView" : 1, "byteOffset" : 12, "componentType" : 5126, "count" : 24204, "type" : "VEC3", "max" : [1.0000044107437134, 1.0000044107437134, 1.0000044107437134], "min" : [-1.0000044107437134, -1.0000044107437134, -1.0000044107437134], "name" : "NORMAL"}, {"bufferView" : 1, "byteOffset" : 24, "componentType" : 5126, "count" : 24204, "type" : "VEC2", "max" : [0.9874574542045593, 0.9915080666542053], "min" : [0.0135003961622715, 0.016201019287109375], "name" : "TEXCOORD_0"}, {"bufferView" : 0, "byteOffset" : 48408, "componentType" : 5123, "count" : 114, "type" : "SCALAR", "max" : [77], "min" : [0]}, {"bufferView" : 2, "byteOffset" : 0, "componentType" : 5126, "count" : 78, "type" : "VEC3", "max" : [8.242515563964844, 10.819734573364258, 5.070927619934082], "min" : [-9.681718826293945, 5.4993438720703125, -2.952925205230713], "name" : "POSITION"}, {"bufferView" : 2, "byteOffset" : 12, "componentType" : 5126, "count" : 78, "type" : "VEC3", "max" : [0.8308383822441101, 0.9982770681381226, 0.18541528284549713], "min" : [-0.861369252204895, 0.5037562251091003, -0.17834213376045227], "name" : "NORMAL"}, {"bufferView" : 2, "byteOffset" : 24, "componentType" : 5126, "count" : 78, "type" : "VEC2", "max" : [0.9973763227462769, 0.9976213574409485], "min" : [-0.013936386443674564, -0.02811288833618164], "name" : "TEXCOORD_0"}, {"bufferView" : 3, "byteOffset" : 0, "componentType" : 5126, "normalized" : false, "count" : 1, "type" : "SCALAR", "max" : [0], "min" : [0]}, {"bufferView" : 4, "componentType" : 5126, "count" : 1, "type" : "VEC3"}, {"bufferView" : 5, "byteOffset" : 0, "componentType" : 5126, "normalized" : false, "count" : 1, "type" : "SCALAR", "max" : [0], "min" : [0]}, {"bufferView" : 6, "componentType" : 5126, "count" : 1, "type" : "VEC4"}, {"bufferView" : 7, "byteOffset" : 0, "componentType" : 5126, "normalized" : false, "count" : 1, "type" : "SCALAR", "max" : [0], "min" : [0]}, {"bufferView" : 8, "componentType" : 5126, "count" : 1, "type" : "VEC3"}, {"bufferView" : 9, "byteOffset" : 0, "componentType" : 5126, "normalized" : false, "count" : 1, "type" : "SCALAR", "max" : [0], "min" : [0]}, {"bufferView" : 10, "componentType" : 5126, "count" : 1, "type" : "VEC3"}, {"bufferView" : 11, "byteOffset" : 0, "componentType" : 5126, "normalized" : false, "count" : 1, "type" : "SCALAR", "max" : [0], "min" : [0]}, {"bufferView" : 12, "componentType" : 5126, "count" : 1, "type" : "VEC4"}, {"bufferView" : 13, "byteOffset" : 0, "componentType" : 5126, "normalized" : false, "count" : 1, "type" : "SCALAR", "max" : [0], "min" : [0]}, {"bufferView" : 14, "componentType" : 5126, "count" : 1, "type" : "VEC3"}],
"animations" :
[
{"channels" : [{"sampler" : 0, "target" : {"node" : 0, "path" : "translation"}}, {"sampler" : 1, "target" : {"node" : 0, "path" : "rotation"}}, {"sampler" : 2, "target" : {"node" : 0, "path" : "scale"}}, {"sampler" : 3, "target" : {"node" : 1, "path" : "translation"}}, {"sampler" : 4, "target" : {"node" : 1, "path" : "rotation"}}, {"sampler" : 5, "target" : {"node" : 1, "path" : "scale"}}], "samplers" : [{"input" : 8, "interpolation" : "CUBICSPLINE", "output" : 9}, {"input" : 10, "interpolation" : "CUBICSPLINE", "output" : 11}, {"input" : 12, "interpolation" : "CUBICSPLINE", "output" : 13}, {"input" : 14, "interpolation" : "CUBICSPLINE", "output" : 15}, {"input" : 16, "interpolation" : "CUBICSPLINE", "output" : 17}, {"input" : 18, "interpolation" : "CUBICSPLINE", "output" : 19}], "name" : "Take 001"}
    
]

, "asset" : {"generator" : "Aspose.3D 25.1.0", "version" : "2.0"}, "buffers" : [{"uri" : "data:application/octet-stream;base64,", "byteLength" : 825824}], "bufferViews" : [{"buffer" : 0, "byteOffset" : 0, "byteLength" : 48636, "target" : 34963}, {"buffer" : 0, "byteOffset" : 48640, "byteLength" : 774528, "byteStride" : 32, "target" : 34962}, {"buffer" : 0, "byteOffset" : 823172, "byteLength" : 2496, "byteStride" : 32, "target" : 34962}, {"buffer" : 0, "byteOffset" : 825672, "byteLength" : 4}, {"buffer" : 0, "byteOffset" : 825680, "byteLength" : 12}, {"buffer" : 0, "byteOffset" : 825696, "byteLength" : 4}, {"buffer" : 0, "byteOffset" : 825704, "byteLength" : 16}, {"buffer" : 0, "byteOffset" : 825724, "byteLength" : 4}, {"buffer" : 0, "byteOffset" : 825732, "byteLength" : 12}, {"buffer" : 0, "byteOffset" : 825748, "byteLength" : 4}, {"buffer" : 0, "byteOffset" : 825756, "byteLength" : 12}, {"buffer" : 0, "byteOffset" : 825772, "byteLength" : 4}, {"buffer" : 0, "byteOffset" : 825780, "byteLength" : 16}, {"buffer" : 0, "byteOffset" : 825800, "byteLength" : 4}, {"buffer" : 0, "byteOffset" : 825808, "byteLength" : 12}], "images" : [{"uri" : "textures/dolly_Material__123_BaseColor.png"}, {"uri" : "textures/Dolly_logo.png"}], "materials" : [{"name" : "Material #126", "pbrMetallicRoughness" : {"baseColorFactor" : [1, 1, 1, 1], "baseColorTexture" : {"index" : 0, "texCoord" : 0}, "metallicFactor" : 1, "roughnessFactor" : 1}, "emissiveFactor" : [0, 0, 0], "alphaMode" : "OPAQUE", "doubleSided" : false}, {"name" : "Material #127", "pbrMetallicRoughness" : {"baseColorFactor" : [1, 1, 1, 1], "baseColorTexture" : {"index" : 1, "texCoord" : 0}, "metallicFactor" : 1, "roughnessFactor" : 1}, "emissiveFactor" : [0, 0, 0], "alphaMode" : "OPAQUE", "doubleSided" : false}], "meshes" : [{"primitives" : [{"attributes" : {"POSITION" : 1, "NORMAL" : 2, "TEXCOORD_0" : 3}, "indices" : 0, "material" : 0, "mode" : 4}], "name" : ""}, {"primitives" : [{"attributes" : {"POSITION" : 5, "NORMAL" : 6, "TEXCOORD_0" : 7}, "indices" : 4, "material" : 1, "mode" : 4}], "name" : ""}], "nodes" : [{"mesh" : 0, "rotation" : [-0.7071068963888595, 0, 0, -0.7071066659842171], "scale" : [1, 1, 1], "translation" : [0.44417858123779297, 22.088909149169922, -0.06982042640447617], "name" : "Cylinder001"}, {"mesh" : 1, "rotation" : [-0.7071068963888595, 0, 0, -0.7071066659842171], "scale" : [1, 1, 1], "translation" : [0.6435203552246094, 21.383769989013672, 0.06909558922052383], "name" : "Cylinder002"}], "samplers" : [{"magFilter" : 9729, "minFilter" : 9729, "wrapS" : 10497, "wrapT" : 10497}, {"magFilter" : 9729, "minFilter" : 9729, "wrapS" : 10497, "wrapT" : 10497}], "scene" : 0, "scenes" : [{"nodes" : [0, 1]}], "textures" : [{"sampler" : 0, "source" : 0, "name" : "Map #9"}, {"sampler" : 1, "source" : 1, "name" : "Map #10"}]}